<?xml version="1.0" encoding="UTF-8"?>
<svg xmlns="http://www.w3.org/2000/svg" xmlns:xlink="http://www.w3.org/1999/xlink" width="32px" height="32px" viewBox="0 0 32 32" version="1.1">
<g id="surface1">
<path style=" stroke:none;fill-rule:nonzero;fill:rgb(6.27451%,7.843138%,7.843138%);fill-opacity:1;" d="M 16.1875 15.3125 C 16.121094 15.363281 16.058594 15.375 15.757812 15.375 C 15.5625 15.375 15.40625 15.367188 15.40625 15.359375 C 15.40625 15.34375 15.894531 14.980469 17.09375 14.109375 C 17.636719 13.714844 18.464844 13.105469 18.9375 12.75 C 19.695312 12.179688 20.09375 11.863281 21.648438 10.613281 C 21.839844 10.460938 21.996094 10.328125 21.992188 10.324219 C 21.988281 10.320312 21.738281 10.441406 21.4375 10.589844 C 19.816406 11.394531 17.921875 12.167969 16.109375 12.765625 C 15.679688 12.90625 15.289062 13.03125 15.242188 13.042969 L 15.15625 13.0625 L 15.164062 12.621094 L 15.171875 12.175781 L 15.347656 12.121094 C 15.550781 12.058594 16.691406 11.628906 16.953125 11.515625 C 17.003906 11.496094 17.203125 11.414062 17.390625 11.335938 C 17.578125 11.257812 17.894531 11.121094 18.09375 11.039062 C 18.292969 10.953125 18.574219 10.832031 18.71875 10.769531 C 19.578125 10.398438 21.757812 9.292969 22.421875 8.890625 C 22.492188 8.851562 22.636719 8.761719 22.75 8.699219 C 22.863281 8.636719 22.988281 8.558594 23.03125 8.53125 C 23.289062 8.355469 23.484375 8.230469 23.558594 8.191406 C 23.835938 8.042969 24.988281 7.234375 25.46875 6.847656 C 26.433594 6.074219 26.9375 5.558594 27.851562 4.40625 L 27.9375 4.296875 L 27.894531 4.421875 C 27.386719 5.84375 26.660156 6.957031 25.347656 8.316406 C 25.140625 8.535156 24.804688 8.859375 24.601562 9.035156 C 24.402344 9.214844 24.1875 9.410156 24.125 9.472656 C 24.0625 9.535156 23.96875 9.613281 23.917969 9.644531 C 23.871094 9.675781 23.808594 9.726562 23.789062 9.757812 C 23.765625 9.789062 23.726562 9.8125 23.699219 9.8125 C 23.675781 9.8125 23.648438 9.832031 23.636719 9.855469 C 23.617188 9.910156 23.269531 10.1875 23.222656 10.1875 C 23.203125 10.1875 23.1875 10.199219 23.1875 10.21875 C 23.1875 10.257812 20.570312 12.21875 20.515625 12.21875 C 20.5 12.21875 20.476562 12.238281 20.457031 12.261719 C 20.4375 12.285156 20.261719 12.421875 20.0625 12.5625 C 19.863281 12.707031 19.632812 12.875 19.542969 12.941406 C 19.457031 13.007812 19.367188 13.0625 19.347656 13.0625 C 19.328125 13.0625 19.3125 13.078125 19.3125 13.09375 C 19.3125 13.109375 19.292969 13.125 19.269531 13.125 C 19.242188 13.125 19.21875 13.136719 19.214844 13.152344 C 19.203125 13.1875 18.382812 13.78125 18.316406 13.804688 C 18.289062 13.816406 18.246094 13.847656 18.21875 13.875 C 18.144531 13.949219 16.320312 15.25 16.289062 15.25 C 16.277344 15.25 16.230469 15.277344 16.1875 15.3125 Z M 16.34375 24.328125 L 16.34375 27.875 L 15.25 27.875 L 15.25 22.75 L 16.769531 22.75 L 17.164062 23.679688 C 17.496094 24.457031 17.757812 25.105469 17.980469 25.683594 C 18 25.738281 18.03125 25.78125 18.046875 25.777344 C 18.066406 25.769531 18.148438 25.574219 18.238281 25.34375 C 18.402344 24.90625 18.542969 24.570312 19.03125 23.429688 L 19.324219 22.75 L 20.101562 22.75 C 20.800781 22.75 20.878906 22.753906 20.863281 22.800781 C 20.851562 22.828125 20.84375 23.980469 20.84375 25.363281 L 20.84375 27.875 L 19.78125 27.875 L 19.78125 26.101562 C 19.78125 25.128906 19.769531 24.34375 19.753906 24.359375 C 19.71875 24.402344 19.171875 25.660156 18.761719 26.648438 L 18.421875 27.46875 L 17.679688 27.453125 L 17.492188 27.015625 C 17.390625 26.773438 17.164062 26.246094 16.992188 25.84375 C 16.816406 25.441406 16.601562 24.933594 16.511719 24.71875 Z M 23.148438 26.796875 L 22.773438 27.875 L 22.179688 27.875 C 21.628906 27.875 21.589844 27.871094 21.609375 27.820312 C 21.664062 27.683594 22.578125 25.265625 23.023438 24.078125 L 23.519531 22.765625 L 24.847656 22.765625 L 25.296875 23.96875 C 25.539062 24.628906 25.925781 25.679688 26.15625 26.296875 C 26.382812 26.914062 26.609375 27.523438 26.65625 27.648438 L 26.742188 27.875 L 25.523438 27.859375 L 25.140625 26.78125 Z M 12.84375 27.90625 C 12.53125 28 11.835938 28.019531 11.519531 27.949219 C 11.214844 27.882812 10.832031 27.738281 10.652344 27.621094 C 10.449219 27.492188 10.226562 27.242188 10.097656 27.007812 C 9.914062 26.65625 9.90625 26.582031 9.90625 24.570312 L 9.90625 22.75 L 11 22.75 L 11 26.234375 L 11.089844 26.421875 C 11.320312 26.910156 11.917969 27.164062 12.421875 26.992188 C 12.730469 26.882812 13.046875 26.570312 13.125 26.285156 C 13.144531 26.214844 13.15625 25.527344 13.15625 24.460938 L 13.15625 22.75 L 14.253906 22.75 L 14.242188 24.648438 C 14.234375 26.546875 14.234375 26.546875 14.160156 26.75 C 14.058594 27.039062 13.953125 27.210938 13.75 27.40625 C 13.546875 27.609375 13.183594 27.808594 12.84375 27.90625 Z M 9.28125 26.875 L 9.28125 27.875 L 5.84375 27.875 L 5.84375 22.75 L 6.9375 22.75 L 6.9375 26.875 Z M 6.164062 16.300781 C 5.78125 16.460938 5.464844 16.59375 5.460938 16.59375 C 5.433594 16.59375 5.363281 16.53125 5.375 16.523438 C 5.433594 16.46875 7 15.519531 7.371094 15.3125 C 7.667969 15.144531 8.355469 14.8125 8.695312 14.667969 C 8.804688 14.625 8.945312 14.5625 9.015625 14.527344 C 9.085938 14.496094 9.300781 14.40625 9.5 14.328125 C 9.859375 14.183594 10.148438 14.0625 10.328125 13.984375 C 10.4375 13.9375 11.351562 13.605469 12 13.375 C 12.25 13.289062 12.519531 13.1875 12.601562 13.15625 L 12.75 13.097656 L 12.734375 13.828125 L 12.390625 13.949219 C 12.203125 14.015625 11.984375 14.085938 11.90625 14.105469 C 11.828125 14.121094 11.757812 14.148438 11.75 14.164062 C 11.738281 14.175781 11.65625 14.203125 11.570312 14.226562 C 11.480469 14.246094 11.40625 14.277344 11.40625 14.289062 C 11.40625 14.300781 11.386719 14.3125 11.367188 14.3125 C 11.34375 14.3125 11.125 14.386719 10.882812 14.480469 C 10.640625 14.574219 10.429688 14.640625 10.421875 14.628906 C 10.410156 14.621094 10.394531 14.625 10.382812 14.644531 C 10.359375 14.671875 9.695312 14.9375 9.636719 14.9375 C 9.621094 14.9375 9.554688 14.964844 9.484375 14.996094 C 9.273438 15.101562 9.039062 15.1875 8.972656 15.1875 C 8.9375 15.1875 8.902344 15.203125 8.890625 15.21875 C 8.878906 15.234375 8.84375 15.25 8.8125 15.25 C 8.777344 15.25 8.75 15.261719 8.75 15.273438 C 8.75 15.289062 8.621094 15.347656 8.460938 15.402344 C 8.300781 15.460938 8.132812 15.527344 8.089844 15.550781 C 8.042969 15.574219 7.984375 15.59375 7.960938 15.59375 C 7.894531 15.59375 7.011719 15.941406 6.164062 16.300781 Z M 9.050781 21.09375 C 8.820312 21.265625 8.621094 21.40625 8.609375 21.40625 C 8.550781 21.40625 8.953125 20.839844 9.285156 20.453125 C 9.515625 20.183594 10.144531 19.554688 10.5 19.238281 C 10.730469 19.03125 11.367188 18.496094 11.449219 18.4375 C 11.484375 18.414062 11.753906 18.203125 12.042969 17.96875 C 12.726562 17.425781 12.75 17.410156 12.75 17.546875 C 12.75 17.644531 12.878906 17.78125 12.96875 17.78125 C 13.027344 17.78125 13.03125 17.785156 12.988281 17.828125 C 12.964844 17.855469 12.925781 17.875 12.910156 17.875 C 12.890625 17.875 12.875 17.886719 12.875 17.902344 C 12.875 17.917969 12.625 18.140625 12.320312 18.394531 C 12.019531 18.652344 11.726562 18.898438 11.675781 18.945312 C 11.621094 18.992188 11.570312 19.03125 11.5625 19.03125 C 11.550781 19.03125 11.445312 19.121094 11.328125 19.234375 C 11.207031 19.34375 11.097656 19.4375 11.085938 19.4375 C 11.074219 19.4375 10.925781 19.554688 10.757812 19.695312 C 9.675781 20.605469 9.425781 20.8125 9.050781 21.09375 Z M 23.523438 25.789062 C 23.542969 25.824219 24.8125 25.816406 24.8125 25.78125 C 24.8125 25.71875 24.175781 23.96875 24.160156 23.984375 C 24.125 24.019531 23.507812 25.765625 23.523438 25.789062 Z M 21.042969 17.214844 C 20.941406 17.296875 20.871094 17.296875 20.785156 17.226562 C 20.683594 17.144531 20.667969 16.988281 20.746094 16.910156 C 20.828125 16.828125 21 16.820312 21.074219 16.902344 C 21.152344 16.988281 21.140625 17.140625 21.042969 17.214844 Z M 22.132812 13.875 C 22.078125 13.9375 21.964844 13.972656 21.882812 13.945312 C 21.835938 13.929688 21.75 13.773438 21.75 13.710938 C 21.75 13.636719 21.875 13.53125 21.957031 13.53125 C 22.046875 13.53125 22.1875 13.660156 22.1875 13.746094 C 22.1875 13.777344 22.164062 13.835938 22.132812 13.875 Z M 22.34375 15.816406 C 22.316406 15.859375 22.277344 15.875 22.171875 15.875 C 22.066406 15.875 22.027344 15.859375 22 15.816406 C 21.933594 15.6875 21.972656 15.539062 22.082031 15.5 C 22.164062 15.46875 22.355469 15.519531 22.328125 15.566406 C 22.316406 15.582031 22.324219 15.59375 22.34375 15.59375 C 22.382812 15.59375 22.382812 15.734375 22.34375 15.816406 Z M 22.34375 15.816406 "/>
<path style=" stroke:none;fill-rule:nonzero;fill:rgb(82.745099%,63.137257%,34.509805%);fill-opacity:1;" d="M 7.496094 15.246094 C 7.707031 15.125 7.78125 15.066406 7.773438 15.035156 C 7.761719 14.992188 7.777344 14.984375 7.855469 14.992188 C 7.921875 15 8.050781 14.960938 8.296875 14.847656 C 8.023438 14.976562 7.710938 15.128906 7.496094 15.246094 Z M 16.1875 15.3125 C 16.230469 15.277344 16.277344 15.25 16.289062 15.25 C 16.304688 15.25 16.738281 14.945312 17.191406 14.625 C 16.652344 15.007812 16.21875 15.332031 16.21875 15.347656 C 16.21875 15.363281 16.035156 15.375 15.8125 15.375 C 15.753906 15.375 15.703125 15.375 15.652344 15.375 C 15.6875 15.375 15.722656 15.375 15.757812 15.375 C 16.058594 15.375 16.121094 15.363281 16.1875 15.3125 Z M 6.058594 16.09375 C 6.5 15.824219 6.863281 15.605469 7.144531 15.441406 C 6.863281 15.609375 6.425781 15.871094 6.058594 16.09375 Z M 18.765625 13.496094 C 18.988281 13.335938 19.207031 13.171875 19.214844 13.152344 C 19.21875 13.144531 19.226562 13.136719 19.242188 13.128906 C 19.226562 13.136719 19.21875 13.144531 19.214844 13.152344 C 19.207031 13.175781 18.988281 13.339844 18.765625 13.496094 Z M 8.65625 14.683594 C 8.742188 14.648438 8.792969 14.625 8.796875 14.625 C 8.761719 14.640625 8.726562 14.65625 8.695312 14.667969 C 8.683594 14.671875 8.671875 14.679688 8.65625 14.683594 Z M 9.394531 14.371094 C 9.429688 14.355469 9.464844 14.339844 9.5 14.328125 C 9.667969 14.257812 9.824219 14.195312 9.957031 14.140625 C 9.824219 14.195312 9.667969 14.257812 9.5 14.328125 C 9.464844 14.339844 9.429688 14.355469 9.394531 14.371094 Z M 9.394531 14.371094 "/>
<path style=" stroke:none;fill-rule:nonzero;fill:rgb(98.039216%,57.647061%,8.235294%);fill-opacity:1;" d="M 8.65625 14.683594 C 8.558594 14.726562 8.433594 14.785156 8.296875 14.847656 C 8.050781 14.960938 7.921875 15 7.855469 14.992188 C 7.792969 14.984375 7.769531 14.992188 7.769531 15.015625 C 7.757812 14.972656 7.738281 14.902344 7.71875 14.828125 C 7.289062 13.34375 7.273438 11.660156 7.675781 10.125 C 7.902344 9.257812 8.464844 8.066406 8.988281 7.347656 C 9.480469 6.671875 10.308594 5.824219 10.882812 5.414062 C 11.886719 4.691406 12.992188 4.199219 14.136719 3.964844 C 14.65625 3.859375 14.769531 3.84375 15.398438 3.796875 C 16.144531 3.742188 16.851562 3.777344 17.515625 3.90625 C 19.402344 4.269531 20.792969 5 22.113281 6.324219 C 22.65625 6.871094 23.105469 7.453125 23.519531 8.144531 C 23.550781 8.199219 23.582031 8.183594 23.925781 7.957031 C 24.046875 7.875 24.167969 7.792969 24.285156 7.714844 C 23.960938 7.9375 23.679688 8.125 23.558594 8.191406 C 23.484375 8.230469 23.289062 8.355469 23.03125 8.53125 C 22.988281 8.558594 22.863281 8.636719 22.75 8.699219 C 22.636719 8.761719 22.492188 8.851562 22.421875 8.890625 C 21.757812 9.292969 19.578125 10.398438 18.71875 10.769531 C 18.574219 10.832031 18.292969 10.953125 18.09375 11.039062 C 17.894531 11.121094 17.578125 11.257812 17.390625 11.335938 C 17.203125 11.414062 17.003906 11.496094 16.953125 11.515625 C 16.691406 11.628906 15.550781 12.058594 15.347656 12.121094 L 15.171875 12.175781 L 15.164062 12.621094 L 15.160156 12.835938 L 15.140625 12.257812 C 15.128906 11.820312 15.128906 10.429688 15.140625 9.171875 C 15.15625 7.914062 15.15625 6.835938 15.144531 6.769531 L 15.121094 6.652344 L 14 6.664062 C 12.972656 6.671875 12.871094 6.675781 12.820312 6.726562 C 12.769531 6.78125 12.765625 6.980469 12.75 10.304688 C 12.746094 11.191406 12.742188 12.183594 12.742188 13.101562 L 12.601562 13.15625 C 12.519531 13.1875 12.25 13.289062 12 13.375 C 11.351562 13.605469 10.4375 13.9375 10.328125 13.984375 C 10.234375 14.027344 10.109375 14.078125 9.957031 14.140625 L 9.953125 14.140625 C 9.820312 14.199219 9.667969 14.261719 9.5 14.328125 C 9.464844 14.339844 9.429688 14.355469 9.394531 14.371094 C 9.230469 14.4375 9.074219 14.503906 9.015625 14.527344 C 8.96875 14.550781 8.882812 14.589844 8.796875 14.625 C 8.792969 14.625 8.742188 14.648438 8.65625 14.683594 Z M 18.765625 13.496094 C 18.988281 13.339844 19.207031 13.175781 19.214844 13.152344 C 19.21875 13.144531 19.226562 13.136719 19.242188 13.128906 C 19.242188 13.128906 19.242188 13.128906 19.246094 13.128906 C 19.246094 13.128906 19.25 13.128906 19.25 13.128906 C 19.257812 13.125 19.261719 13.125 19.269531 13.125 C 19.292969 13.125 19.3125 13.109375 19.3125 13.09375 C 19.3125 13.078125 19.328125 13.0625 19.347656 13.0625 C 19.367188 13.0625 19.457031 13.007812 19.542969 12.941406 C 19.632812 12.875 19.863281 12.707031 20.0625 12.5625 C 20.261719 12.421875 20.4375 12.285156 20.457031 12.261719 C 20.476562 12.238281 20.5 12.21875 20.515625 12.21875 C 20.570312 12.21875 23.1875 10.257812 23.1875 10.21875 C 23.1875 10.199219 23.203125 10.1875 23.222656 10.1875 C 23.269531 10.1875 23.617188 9.910156 23.636719 9.855469 C 23.648438 9.832031 23.675781 9.8125 23.699219 9.8125 C 23.726562 9.8125 23.765625 9.789062 23.789062 9.757812 C 23.808594 9.726562 23.871094 9.675781 23.917969 9.644531 C 23.96875 9.613281 24.0625 9.535156 24.125 9.472656 L 24.230469 9.816406 C 24.421875 10.449219 24.507812 10.855469 24.582031 11.488281 C 24.644531 12.03125 24.625 13.25 24.546875 13.734375 C 24.316406 15.160156 23.816406 16.390625 23.007812 17.515625 C 22.183594 18.660156 21.015625 19.632812 19.757812 20.226562 C 17.488281 21.289062 14.9375 21.328125 12.601562 20.339844 C 12.167969 20.15625 11.402344 19.742188 11.132812 19.539062 L 11.035156 19.46875 C 11.0625 19.449219 11.082031 19.4375 11.085938 19.4375 C 11.097656 19.4375 11.207031 19.34375 11.328125 19.234375 C 11.445312 19.121094 11.550781 19.03125 11.5625 19.03125 C 11.570312 19.03125 11.621094 18.992188 11.675781 18.945312 C 11.726562 18.898438 12.019531 18.652344 12.320312 18.394531 C 12.625 18.140625 12.875 17.917969 12.875 17.902344 C 12.875 17.886719 12.890625 17.875 12.910156 17.875 C 12.925781 17.875 12.964844 17.855469 12.988281 17.828125 C 13.03125 17.785156 13.027344 17.78125 12.96875 17.78125 C 12.9375 17.78125 12.902344 17.765625 12.867188 17.738281 C 12.964844 17.78125 13.332031 17.78125 16.015625 17.78125 C 18.304688 17.78125 19.144531 17.773438 19.203125 17.746094 C 19.253906 17.722656 19.292969 17.667969 19.3125 17.597656 C 19.328125 17.53125 19.34375 17.054688 19.34375 16.496094 C 19.34375 15.601562 19.339844 15.5 19.289062 15.441406 C 19.234375 15.375 19.226562 15.375 17.3125 15.367188 L 16.152344 15.363281 C 16.195312 15.359375 16.21875 15.351562 16.21875 15.347656 C 16.21875 15.332031 16.652344 15.007812 17.191406 14.625 C 17.675781 14.277344 18.179688 13.914062 18.21875 13.875 C 18.246094 13.847656 18.289062 13.816406 18.316406 13.804688 C 18.347656 13.792969 18.558594 13.648438 18.765625 13.496094 Z M 12.765625 17.613281 C 12.753906 17.589844 12.75 17.570312 12.75 17.546875 C 12.75 17.410156 12.726562 17.425781 12.042969 17.96875 C 11.753906 18.203125 11.484375 18.414062 11.449219 18.4375 C 11.378906 18.488281 10.898438 18.886719 10.617188 19.132812 L 10.480469 19.03125 C 10.34375 18.933594 9.742188 18.347656 9.488281 18.066406 C 9.285156 17.839844 8.800781 17.183594 8.621094 16.890625 C 8.476562 16.65625 8.257812 16.25 8.039062 15.808594 C 8.019531 15.761719 8 15.695312 8 15.660156 C 8 15.625 7.980469 15.59375 7.957031 15.59375 C 7.957031 15.59375 7.957031 15.59375 7.960938 15.59375 C 7.984375 15.59375 8.042969 15.574219 8.089844 15.550781 C 8.132812 15.527344 8.300781 15.460938 8.460938 15.402344 C 8.621094 15.347656 8.75 15.289062 8.75 15.273438 C 8.75 15.261719 8.777344 15.25 8.8125 15.25 C 8.84375 15.25 8.878906 15.234375 8.890625 15.21875 C 8.902344 15.203125 8.9375 15.1875 8.972656 15.1875 C 9.039062 15.1875 9.273438 15.101562 9.484375 14.996094 C 9.554688 14.964844 9.621094 14.9375 9.636719 14.9375 C 9.695312 14.9375 10.359375 14.671875 10.382812 14.644531 C 10.394531 14.625 10.410156 14.621094 10.421875 14.628906 C 10.429688 14.640625 10.640625 14.574219 10.882812 14.480469 C 11.125 14.386719 11.34375 14.3125 11.367188 14.3125 C 11.386719 14.3125 11.40625 14.300781 11.40625 14.289062 C 11.40625 14.277344 11.480469 14.246094 11.570312 14.226562 C 11.65625 14.203125 11.738281 14.175781 11.75 14.164062 C 11.757812 14.148438 11.828125 14.121094 11.90625 14.105469 C 11.984375 14.085938 12.203125 14.015625 12.390625 13.949219 L 12.734375 13.828125 L 12.742188 13.445312 C 12.742188 14.394531 12.746094 15.234375 12.75 15.746094 Z M 21.042969 17.214844 C 21.140625 17.140625 21.152344 16.988281 21.074219 16.902344 C 21 16.820312 20.828125 16.828125 20.746094 16.910156 C 20.667969 16.988281 20.683594 17.144531 20.785156 17.226562 C 20.871094 17.296875 20.941406 17.296875 21.042969 17.214844 Z M 22.132812 13.875 C 22.164062 13.835938 22.1875 13.777344 22.1875 13.746094 C 22.1875 13.660156 22.046875 13.53125 21.957031 13.53125 C 21.875 13.53125 21.75 13.636719 21.75 13.710938 C 21.75 13.773438 21.835938 13.929688 21.882812 13.945312 C 21.964844 13.972656 22.078125 13.9375 22.132812 13.875 Z M 22.34375 15.816406 C 22.382812 15.734375 22.382812 15.59375 22.34375 15.59375 C 22.324219 15.59375 22.316406 15.582031 22.328125 15.566406 C 22.355469 15.519531 22.164062 15.46875 22.082031 15.5 C 21.972656 15.539062 21.933594 15.6875 22 15.816406 C 22.027344 15.859375 22.066406 15.875 22.171875 15.875 C 22.277344 15.875 22.316406 15.859375 22.34375 15.816406 Z M 25.082031 7.144531 C 25.714844 6.667969 26.253906 6.203125 26.722656 5.726562 C 26.347656 6.117188 25.96875 6.445312 25.46875 6.847656 C 25.367188 6.929688 25.230469 7.03125 25.082031 7.144531 Z M 25.578125 8.074219 C 26.089844 7.527344 26.507812 7.011719 26.851562 6.496094 C 26.625 6.835938 26.367188 7.175781 26.078125 7.519531 C 25.929688 7.691406 25.757812 7.882812 25.578125 8.074219 Z M 15.40625 15.359375 L 15.390625 15.359375 L 15.75 15.09375 C 15.808594 15.046875 15.902344 14.980469 16.019531 14.890625 C 15.609375 15.195312 15.421875 15.339844 15.40625 15.359375 Z M 24.332031 9.28125 C 24.414062 9.203125 24.507812 9.117188 24.601562 9.035156 C 24.640625 9.003906 24.679688 8.964844 24.722656 8.925781 C 24.585938 9.054688 24.453125 9.171875 24.332031 9.28125 Z M 10.351562 19.371094 C 9.992188 19.707031 9.488281 20.214844 9.285156 20.453125 C 9.496094 20.207031 10.03125 19.664062 10.351562 19.371094 Z M 9.75 20.539062 C 9.949219 20.375 10.203125 20.160156 10.5625 19.859375 C 10.246094 20.128906 9.976562 20.351562 9.75 20.539062 Z M 15.246094 13.042969 C 15.308594 13.027344 15.691406 12.902344 16.109375 12.765625 C 15.679688 12.90625 15.292969 13.03125 15.246094 13.042969 Z M 27.695312 4.601562 C 27.769531 4.511719 27.828125 4.4375 27.851562 4.40625 C 27.796875 4.472656 27.746094 4.539062 27.695312 4.601562 Z M 27.695312 4.601562 "/>
<path style=" stroke:none;fill-rule:nonzero;fill:rgb(99.607843%,99.607843%,99.607843%);fill-opacity:1;" d="M 0 16 L 0 0 L 32 0 L 32 32 L 0 32 Z M 12.84375 27.90625 C 13.183594 27.808594 13.546875 27.609375 13.75 27.40625 C 13.953125 27.210938 14.058594 27.039062 14.160156 26.75 C 14.234375 26.546875 14.234375 26.546875 14.242188 24.648438 L 14.253906 22.75 L 13.15625 22.75 L 13.15625 24.460938 C 13.15625 25.527344 13.144531 26.214844 13.125 26.285156 C 13.046875 26.570312 12.730469 26.882812 12.421875 26.992188 C 11.917969 27.164062 11.320312 26.910156 11.089844 26.421875 L 11 26.234375 L 11 22.75 L 9.90625 22.75 L 9.90625 24.570312 C 9.90625 26.582031 9.914062 26.65625 10.097656 27.007812 C 10.226562 27.242188 10.449219 27.492188 10.652344 27.621094 C 10.832031 27.738281 11.214844 27.882812 11.519531 27.949219 C 11.835938 28.019531 12.53125 28 12.84375 27.90625 Z M 9.28125 27.375 L 9.28125 26.875 L 6.9375 26.875 L 6.9375 22.75 L 5.84375 22.75 L 5.84375 27.875 L 9.28125 27.875 Z M 16.34375 26.101562 L 16.34375 24.328125 L 16.511719 24.71875 C 16.601562 24.933594 16.816406 25.441406 16.992188 25.84375 C 17.164062 26.246094 17.390625 26.773438 17.492188 27.015625 L 17.679688 27.453125 L 18.421875 27.46875 L 18.761719 26.648438 C 19.171875 25.660156 19.71875 24.402344 19.753906 24.359375 C 19.769531 24.34375 19.78125 25.128906 19.78125 26.101562 L 19.78125 27.875 L 20.84375 27.875 L 20.84375 25.363281 C 20.84375 23.980469 20.851562 22.828125 20.863281 22.800781 C 20.878906 22.753906 20.800781 22.75 20.101562 22.75 L 19.324219 22.75 L 19.03125 23.429688 C 18.542969 24.570312 18.402344 24.90625 18.238281 25.34375 C 18.148438 25.574219 18.066406 25.769531 18.046875 25.777344 C 18.03125 25.78125 18 25.738281 17.980469 25.683594 C 17.757812 25.105469 17.496094 24.457031 17.164062 23.679688 L 16.769531 22.75 L 15.25 22.75 L 15.25 27.875 L 16.34375 27.875 Z M 22.960938 27.335938 L 23.148438 26.796875 L 25.140625 26.78125 L 25.523438 27.859375 L 26.742188 27.875 L 26.65625 27.648438 C 26.609375 27.523438 26.382812 26.914062 26.15625 26.296875 C 25.925781 25.679688 25.539062 24.628906 25.296875 23.96875 L 24.847656 22.765625 L 23.519531 22.765625 L 23.023438 24.078125 C 22.578125 25.265625 21.664062 27.683594 21.609375 27.820312 C 21.589844 27.871094 21.628906 27.875 22.179688 27.875 L 22.773438 27.875 Z M 9.050781 21.09375 C 9.421875 20.8125 9.929688 20.394531 10.757812 19.695312 L 11.027344 19.464844 L 11.132812 19.539062 C 11.402344 19.742188 12.167969 20.15625 12.601562 20.339844 C 14.9375 21.328125 17.488281 21.289062 19.757812 20.226562 C 21.015625 19.632812 22.183594 18.660156 23.007812 17.515625 C 23.816406 16.390625 24.316406 15.160156 24.546875 13.734375 C 24.625 13.25 24.644531 12.03125 24.582031 11.488281 C 24.507812 10.855469 24.421875 10.449219 24.230469 9.816406 L 24.121094 9.457031 L 24.273438 9.332031 C 24.828125 8.859375 25.589844 8.097656 26.078125 7.519531 C 26.929688 6.511719 27.484375 5.5625 27.894531 4.421875 L 27.9375 4.296875 L 27.851562 4.40625 C 27.804688 4.464844 27.628906 4.683594 27.464844 4.890625 C 26.609375 5.957031 25.53125 6.890625 23.925781 7.957031 C 23.582031 8.183594 23.550781 8.199219 23.519531 8.144531 C 23.105469 7.453125 22.65625 6.871094 22.113281 6.324219 C 20.792969 5 19.402344 4.269531 17.515625 3.90625 C 16.851562 3.777344 16.144531 3.742188 15.398438 3.796875 C 14.769531 3.84375 14.65625 3.859375 14.136719 3.964844 C 12.992188 4.199219 11.886719 4.691406 10.882812 5.414062 C 10.308594 5.824219 9.480469 6.671875 8.988281 7.347656 C 8.464844 8.066406 7.902344 9.257812 7.675781 10.125 C 7.273438 11.660156 7.289062 13.34375 7.71875 14.828125 C 7.753906 14.949219 7.78125 15.054688 7.78125 15.066406 C 7.78125 15.078125 7.613281 15.179688 7.40625 15.292969 C 6.847656 15.601562 5.375 16.503906 5.375 16.535156 C 5.375 16.613281 5.554688 16.558594 6.164062 16.300781 C 6.996094 15.949219 7.894531 15.59375 7.957031 15.59375 C 7.980469 15.59375 8 15.625 8 15.660156 C 8 15.695312 8.019531 15.761719 8.039062 15.808594 C 8.257812 16.25 8.476562 16.65625 8.621094 16.890625 C 8.800781 17.183594 9.285156 17.839844 9.488281 18.066406 C 9.742188 18.347656 10.34375 18.933594 10.480469 19.03125 L 10.625 19.132812 L 10.476562 19.261719 C 10.199219 19.5 9.527344 20.171875 9.285156 20.453125 C 8.953125 20.839844 8.550781 21.40625 8.609375 21.40625 C 8.621094 21.40625 8.820312 21.265625 9.050781 21.09375 Z M 23.523438 25.789062 C 23.507812 25.765625 24.125 24.019531 24.160156 23.984375 C 24.175781 23.96875 24.8125 25.71875 24.8125 25.78125 C 24.8125 25.816406 23.542969 25.824219 23.523438 25.789062 Z M 12.839844 17.722656 L 12.765625 17.660156 L 12.75 15.746094 C 12.742188 14.691406 12.742188 12.242188 12.75 10.304688 C 12.765625 6.980469 12.769531 6.78125 12.820312 6.726562 C 12.871094 6.675781 12.972656 6.671875 14 6.664062 L 15.121094 6.652344 L 15.144531 6.769531 C 15.15625 6.835938 15.15625 7.914062 15.140625 9.171875 C 15.128906 10.429688 15.128906 11.820312 15.140625 12.257812 L 15.164062 13.0625 L 15.246094 13.042969 C 15.292969 13.03125 15.679688 12.90625 16.109375 12.765625 C 17.921875 12.167969 19.816406 11.394531 21.4375 10.589844 C 21.738281 10.441406 21.988281 10.320312 21.992188 10.324219 C 21.996094 10.328125 21.839844 10.460938 21.648438 10.613281 C 20.09375 11.863281 19.695312 12.179688 18.9375 12.75 C 18.464844 13.105469 17.636719 13.714844 17.09375 14.109375 C 16.550781 14.503906 15.949219 14.945312 15.75 15.09375 L 15.390625 15.359375 L 17.3125 15.367188 C 19.226562 15.375 19.234375 15.375 19.289062 15.441406 C 19.339844 15.5 19.34375 15.601562 19.34375 16.496094 C 19.34375 17.054688 19.328125 17.53125 19.3125 17.597656 C 19.292969 17.667969 19.253906 17.722656 19.203125 17.746094 C 19.144531 17.773438 18.304688 17.78125 16.015625 17.78125 C 13.007812 17.78125 12.910156 17.78125 12.839844 17.722656 Z M 12.839844 17.722656 "/>
</g>
</svg>
